<svg viewBox="0 0 126 126" fill="none" xmlns="http://www.w3.org/2000/svg">
<path d="M33.8194 40.375C35.4552 37.5417 39.5448 37.5417 41.1806 40.375V40.375C42.8164 43.2083 40.7717 46.75 37.5 46.75V46.75C34.2283 46.75 32.1836 43.2083 33.8194 40.375V40.375Z" fill="white"/>
<path d="M58.8194 30.375C60.4552 27.5417 64.5448 27.5417 66.1806 30.375V30.375C67.8164 33.2083 65.7717 36.75 62.5 36.75V36.75C59.2283 36.75 57.1836 33.2083 58.8194 30.375V30.375Z" fill="white"/>
<path d="M58.8194 93.375C60.4552 90.5417 64.5448 90.5417 66.1806 93.375V93.375C67.8164 96.2083 65.7717 99.75 62.5 99.75V99.75C59.2283 99.75 57.1836 96.2083 58.8194 93.375V93.375Z" fill="white"/>
<path d="M80.6028 82.3257C82.2387 79.4923 86.3282 79.4923 87.9641 82.3257V82.3257C89.5999 85.159 87.5551 88.7007 84.2834 88.7007V88.7007C81.0118 88.7007 78.967 85.159 80.6028 82.3257V82.3257Z" fill="white"/>
<path d="M81.2109 40.6113C82.8467 37.778 86.9363 37.778 88.5721 40.6113V40.6113C90.2079 43.4447 88.1631 46.9863 84.8915 46.9863V46.9863C81.6198 46.9863 79.575 43.4447 81.2109 40.6113V40.6113Z" fill="white"/>
<path d="M35.2219 83.6694C36.8577 80.8361 40.9472 80.8361 42.5831 83.6694V83.6694C44.2189 86.5028 42.1741 90.0444 38.9025 90.0444V90.0444C35.6308 90.0444 33.586 86.5028 35.2219 83.6694V83.6694Z" fill="white"/>
<path d="M90.817 62.9297C92.4528 60.0964 96.5423 60.0964 98.1782 62.9297V62.9297C99.814 65.763 97.7692 69.3047 94.4976 69.3047V69.3047C91.2259 69.3047 89.1811 65.763 90.817 62.9297V62.9297Z" fill="white"/>
<path d="M27.8194 62.375C29.4552 59.5417 33.5448 59.5417 35.1806 62.375V62.375C36.8164 65.2083 34.7717 68.75 31.5 68.75V68.75C28.2283 68.75 26.1836 65.2083 27.8194 62.375V62.375Z" fill="white"/>
<path d="M62 0L72.3923 17.25H51.6077L62 0Z" fill="white"/>
<path d="M62 103L72.3923 120.25H51.6077L62 103Z" fill="white"/>
<path d="M61 53L71.3923 70.25H50.6077L61 53Z" fill="white"/>
<path d="M21 17L30.5263 33.5H11.4737L21 17Z" fill="white"/>
<path d="M21 17L30.5263 33.5H11.4737L21 17Z" fill="white"/>
<path d="M97.5 85L107.459 102.25H87.5407L97.5 85Z" fill="white"/>
<path d="M98.5 17L108.459 34.25H88.5407L98.5 17Z" fill="white"/>
<path d="M23.5 87L33.4593 104.25H13.5407L23.5 87Z" fill="white"/>
<path d="M114.5 54L124.459 70.5H104.541L114.5 54Z" fill="white"/>
<path d="M11.5 52L21.4593 70H1.54071L11.5 52Z" fill="white"/>
</svg>
