<svg width="879" height="562" viewBox="0 0 879 562" fill="none" xmlns="http://www.w3.org/2000/svg">
<path d="M0 85.5V6C0 3.23858 2.23858 1 5 1H87H170.802C172.752 1 174.523 2.13329 175.341 3.90325L260.473 188.2C262.259 192.067 267.753 192.073 269.547 188.21L355.186 3.82941C355.99 2.09784 357.71 0.975427 359.619 0.936669L405.75 0H450C452.761 0 455 2.23858 455 5.00001V281.25V556C455 558.761 452.761 561 450 561H405.75L361.551 561.449C358.77 561.477 356.5 559.23 356.5 556.449V258.39C356.5 253.499 350.202 251.517 347.401 255.527L269.11 367.615C267.117 370.469 262.891 370.463 260.905 367.605L183.106 255.609C180.312 251.587 174 253.564 174 258.462V556.5C174 559.261 171.761 561.5 169 561.5H124.75H80.5C77.7386 561.5 75.5 559.261 75.5 556.5V95.5C75.5 92.7386 73.2614 90.5 70.5 90.5H5C2.23858 90.5 0 88.2614 0 85.5Z" fill="#1663C7"/>
<path fill-rule="evenodd" clip-rule="evenodd" d="M516 557C516 559.761 518.239 562 521 562H602.37C605.132 562 607.37 559.814 607.37 557.053C607.37 528.105 607.37 379.152 607.37 297.938C607.37 295.176 609.609 293 612.37 293H629.796C631.749 293 633.523 294.137 634.339 295.911L755.332 559.089C756.148 560.863 757.922 562 759.875 562H874C876.761 562 879 559.761 879 557V478.368C879 475.607 876.761 473.368 874 473.368H808.259C806.333 473.368 804.578 472.262 803.747 470.523L719.859 294.937C718.592 292.285 719.874 289.118 722.629 288.095L735 283.5C779.5 270 840.035 223.4 840.035 139C840.035 54.6 769.485 6.33333 723.716 1H607.37H521C518.239 1 516 3.23859 516 6.00001V557ZM607.37 139V86H658.797C660.933 86 663.398 85.9259 666.111 85.8444C691.934 85.0681 737.182 83.6179 737.182 139C737.182 194.166 695.691 192.942 667.415 192.165C664.322 192.08 661.423 192 658.797 192H607.37V139Z" fill="#1663C7"/>
</svg>
