<svg width="868" height="562" viewBox="0 0 868 562" fill="none" xmlns="http://www.w3.org/2000/svg">
<g clip-path="url(#clip0)">
<g>
<path d="M0 85.5V6C0 3.23858 2.23858 1 5 1H87H170.802C172.752 1 174.523 2.13329 175.341 3.90325L260.473 188.2C262.259 192.067 267.753 192.073 269.547 188.21L355.186 3.82941C355.99 2.09784 357.71 0.975427 359.619 0.936669L405.75 0H450C452.761 0 455 2.23858 455 5.00001V281.25V556C455 558.761 452.761 561 450 561H405.75L361.551 561.449C358.77 561.477 356.5 559.23 356.5 556.449V258.39C356.5 253.499 350.202 251.517 347.401 255.527L269.11 367.615C267.117 370.469 262.891 370.463 260.905 367.605L183.106 255.609C180.312 251.587 174 253.564 174 258.462V556.5C174 559.261 171.761 561.5 169 561.5H124.75H80.5C77.7386 561.5 75.5 559.261 75.5 556.5V95.5C75.5 92.7386 73.2614 90.5 70.5 90.5H5C2.23858 90.5 0 88.2614 0 85.5Z" fill="#1663C7"/>
</g>
<g>
<path fill-rule="evenodd" clip-rule="evenodd" d="M516 557C516 559.761 518.239 562 521 562H602.37C605.132 562 607.37 559.846 607.37 557.084C607.37 533.544 607.37 430.277 607.37 352.595C607.37 347.559 613.975 345.687 616.623 349.971L746.205 559.629C747.116 561.103 748.726 562 750.459 562H863C865.761 562 868 559.761 868 557V478.368C868 475.607 865.761 473.368 863 473.368H795.975C794.198 473.368 792.555 472.426 791.658 470.892L678.27 277C692.893 277 715.716 277 715.716 277C761.485 271.5 843.035 223.4 843.035 139C843.035 54.6 761.485 6.33333 715.716 1H607.37H521C518.239 1 516 3.23859 516 6.00001V557ZM607.37 139V86H658.797C660.933 86 663.398 85.9259 666.111 85.8444C691.934 85.0681 740.182 83.6179 740.182 139C740.182 194.166 695.691 192.942 667.415 192.165C664.322 192.08 661.423 192 658.797 192H607.37V139Z" fill="#1663C7"/>
</g>
</g>
<defs>
<clipPath id="clip0">
<rect width="868" height="562" fill="white"/>
</clipPath>
</defs>
</svg>
