<svg xmlns="http://www.w3.org/2000/svg" xmlns:xlink="http://www.w3.org/1999/xlink" xml:space="preserve" version="1.1" style="shape-rendering:geometricPrecision;text-rendering:geometricPrecision;image-rendering:optimizeQuality;" viewBox="0 0 60000 75000" x="0px" y="0px" fill-rule="evenodd" clip-rule="evenodd"><defs><style type="text/css">

    .fil0 {fill:#52b49f;fill-rule:nonzero}

  </style></defs><g><path class="fil0" d="M25293 24536l10992 11544 -578 550 -10992 -11544 578 -550zm24254 -5402l-14597 13001 -598 -671 14597 -13001 598 671zm3705 -7924l-14065 12527 -598 -671 14065 -12527 598 671zm-1687 -4035l-599 -672 672 -599 599 672 -672 599zm-18818 16761l-599 -672 672 -599 599 672 -672 599zm2688 -2394l-599 -672 672 -599 599 672 -672 599zm2688 -2394l-599 -672 672 -599 599 672 -672 599zm2688 -2394l-599 -672 672 -599 599 672 -672 599zm2688 -2394l-599 -672 672 -599 599 672 -672 599zm2688 -2394l-599 -672 672 -599 599 672 -672 599zm2688 -2394l-599 -672 672 -599 599 672 -672 599zm-14250 39761c14,-582 263,-1102 653,-1473 390,-371 921,-594 1503,-579 582,14 1102,263 1473,653 371,390 594,921 579,1503 -14,582 -263,1102 -653,1473 -390,371 -921,594 -1503,579 -582,-14 -1102,-263 -1473,-653 -371,-390 -594,-921 -579,-1503zm1203 -895c-242,231 -397,554 -406,914 -9,361 130,691 361,934 231,242 554,397 914,406 361,9 691,-130 934,-361 242,-231 397,-554 406,-914 9,-361 -130,-691 -361,-934 -231,-242 -554,-397 -914,-406 -361,-9 -691,130 -934,361zm4304 -4601c18,-721 326,-1366 809,-1826 483,-460 1142,-736 1862,-718 721,18 1366,326 1826,809 460,483 736,1142 718,1862 -18,721 -326,1366 -809,1826 -483,460 -1142,736 -1862,718 -721,-18 -1366,-325 -1826,-809 -460,-483 -736,-1142 -718,-1862zm1359 -1248c-336,320 -550,767 -562,1267 -12,500 179,958 499,1294 320,336 767,550 1267,562 500,12 958,-179 1294,-499 336,-320 550,-767 562,-1267 12,-500 -179,-958 -499,-1294 -320,-336 -767,-550 -1267,-562 -500,-12 -958,179 -1294,499zm4146 -4239l2 -9c21,-860 388,-1629 965,-2179 575,-547 1357,-876 2213,-857l0 -1 9 2c860,21 1629,388 2179,965 547,575 876,1357 857,2213l1 0 -2 9c-21,860 -388,1629 -965,2179 -577,549 -1363,878 -2222,857 -860,-21 -1629,-388 -2179,-965 -547,-575 -876,-1357 -857,-2213l-1 0zm799 0l1 0 -2 9c-16,639 229,1224 638,1654 409,429 981,703 1619,718 639,16 1224,-229 1654,-638 427,-407 700,-975 718,-1610l-1 0 2 -9c16,-639 -229,-1224 -638,-1654 -407,-427 -975,-700 -1610,-718l0 1 -9 -2c-639,-16 -1224,229 -1654,638 -427,407 -700,975 -718,1610zm4710 -5506c25,-999 451,-1893 1121,-2531 668,-636 1578,-1018 2573,-996l0 -1 9 2c999,25 1893,451 2531,1121 636,668 1018,1578 996,2573l1 0 -2 9c-25,999 -451,1893 -1121,2531 -670,638 -1584,1020 -2582,996 -999,-25 -1893,-451 -2531,-1121 -638,-670 -1020,-1584 -996,-2582zm1671 -1953c-523,498 -856,1194 -875,1972 -19,778 279,1491 777,2013 498,523 1194,856 1972,875 778,19 1491,-279 2013,-777 521,-496 853,-1189 874,-1963l-1 0 2 -9c19,-778 -279,-1491 -777,-2013 -496,-521 -1189,-853 -1963,-874l0 1 -9 -2c-778,-19 -1491,279 -2013,777zm-12385 -24457l-2 9c-14,582 -263,1102 -653,1473 -388,369 -916,591 -1493,579l0 1 -9 -2c-582,-14 -1102,-263 -1473,-653 -369,-388 -591,-916 -579,-1493l-1 0 2 -9c14,-582 263,-1102 653,-1473 388,-369 916,-591 1493,-579l0 -1 9 2c582,14 1102,263 1473,653 369,388 591,916 579,1493l1 0zm-799 0l-1 0 2 -9c9,-361 -130,-691 -361,-934 -229,-240 -548,-394 -905,-405l0 1 -9 -2c-361,-9 -691,130 -934,361 -240,229 -394,548 -405,905l1 0 -2 9c-9,361 130,691 361,934 229,240 548,394 905,405l0 -1 9 2c361,9 691,-130 934,-361 240,-229 394,-548 405,-905zm-4708 5496l-2 9c-18,721 -325,1366 -809,1826 -481,458 -1136,733 -1853,718l0 1 -9 -2c-721,-18 -1366,-326 -1826,-809 -460,-483 -736,-1142 -718,-1862 18,-721 326,-1366 809,-1826 481,-458 1137,-733 1853,-718l0 -1 9 2c721,18 1366,326 1826,809 458,481 733,1136 718,1853l1 0zm-799 0l-1 0 2 -9c12,-500 -179,-958 -499,-1294 -318,-334 -762,-547 -1257,-562l0 1 -9 -2c-500,-12 -958,179 -1294,499 -336,320 -550,767 -562,1267 -12,500 179,958 499,1294 318,334 762,547 1257,562l0 -1 9 2c500,12 958,-179 1294,-499 334,-318 547,-762 562,-1257zm-4710 5506c-21,860 -388,1629 -965,2179 -577,549 -1363,878 -2222,857 -860,-21 -1629,-388 -2179,-965 -549,-577 -878,-1363 -857,-2222 21,-860 388,-1630 965,-2179 577,-549 1363,-878 2222,-857 860,21 1629,388 2179,965 549,577 878,1363 857,2222zm-1515 1601c429,-409 703,-981 718,-1619 16,-639 -229,-1224 -638,-1654 -409,-429 -981,-703 -1619,-718 -639,-16 -1224,229 -1654,638 -429,409 -703,981 -718,1619 -16,639 229,1224 638,1654 409,429 981,703 1619,718 639,16 1224,-229 1654,-638zm-3992 3896c-25,999 -451,1893 -1121,2531 -670,638 -1584,1020 -2582,996 -999,-25 -1893,-451 -2531,-1121 -636,-668 -1018,-1578 -996,-2573l-1 0 2 -9c25,-999 451,-1893 1121,-2531 668,-636 1578,-1018 2573,-996l0 -1 9 2c999,25 1893,451 2531,1121 636,668 1018,1578 996,2573l1 0 -2 9zm-1671 1953c521,-496 853,-1189 874,-1963l-1 0 2 -9c19,-778 -279,-1491 -777,-2013 -496,-521 -1189,-853 -1963,-874l0 1 -9 -2c-778,-19 -1491,279 -2013,777 -521,496 -853,1189 -874,1963l1 0 -2 9c-19,778 279,1491 777,2013 498,523 1194,856 1972,875 778,19 1491,-279 2013,-777zm955 27296l-2 9c-25,999 -451,1893 -1121,2531 -668,636 -1578,1018 -2573,996l0 1 -9 -2c-999,-25 -1893,-451 -2531,-1121 -638,-670 -1020,-1584 -996,-2582 25,-999 451,-1893 1121,-2531 668,-636 1578,-1018 2573,-996l0 -1 9 2c999,25 1893,451 2531,1121 636,668 1018,1578 996,2573l1 0zm-799 0l-1 0 2 -9c19,-778 -279,-1491 -777,-2013 -496,-521 -1189,-853 -1963,-874l0 1 -9 -2c-778,-19 -1491,279 -2013,777 -523,498 -856,1194 -875,1972 -19,778 279,1491 777,2013 496,521 1189,853 1963,874l0 -1 9 2c778,19 1491,-279 2013,-777 521,-496 853,-1189 874,-1963zm180 -25254l8729 9168 -578 550 -8729 -9168 578 -550zm8595 13189l-8807 8385 -550 -578 8807 -8385 550 578zm-14156 8174l-10286 -10803 11075 -10544 550 578 -10496 9994 9736 10226 -578 550zm19033 -7828l-11680 11120 -550 -578 11680 -11120 550 578zm-21264 10726l-13165 -13827 14004 -13333 550 578 -13425 12782 12615 13250 -578 550z"/></g><text x="0" y="60015" fill="#000000" font-size="5px" font-weight="bold" font-family="'Helvetica Neue', Helvetica, Arial-Unicode, Arial, Sans-serif">Created by Olena Panasovska</text><text x="0" y="60020" fill="#000000" font-size="5px" font-weight="bold" font-family="'Helvetica Neue', Helvetica, Arial-Unicode, Arial, Sans-serif">from the Noun Project</text></svg>