<svg width="20" height="28" viewBox="0 0 20 28" fill="none" xmlns="http://www.w3.org/2000/svg">
<path d="M17.0216 3.8483L6.54214 23.2737L7.39668 25.0405L8.25122 26.8073L18.7307 7.38191L17.8762 5.6151L17.0216 3.8483Z" fill="#A35CBC"/>
<path d="M1.30244 3.84831C1.30244 3.84831 3.60584 3.3586 5.20394 3.37024M1.30244 3.84831C1.30244 3.84831 0.816952 0.911195 2.86435 0.911195C4.68276 0.911195 5.12891 2.90008 5.20394 3.37024M1.30244 3.84831L4.41688 15.3946L6.54214 23.2737M17.0216 3.8483L6.54214 23.2737M17.0216 3.8483L17.8762 5.6151L18.7307 7.38191L8.25122 26.8073L7.39668 25.0405L6.54214 23.2737M17.0216 3.8483L13.1275 3.37024M17.0216 3.8483C17.0216 3.8483 16.6971 0.705718 14.6497 0.705718C12.6023 0.705718 13.1275 3.37024 13.1275 3.37024M9.23932 10.9454L8.44717 15.0094M9.08451 3.35533L13.1275 3.37024M9.08451 3.35533C9.08451 3.35533 6.71939 3.36442 5.20394 3.37024M9.08451 3.35533C9.01817 2.8878 8.61931 0.592227 6.80091 0.592227C4.9825 0.592227 5.14529 2.90008 5.20394 3.37024M9.08451 3.35533C9.03455 2.8878 8.91229 0.592224 10.7307 0.592224C12.7781 0.592224 13.1275 3.37024 13.1275 3.37024M6.39382 14.9421L5.72548 10.847" stroke="#3B2B18" stroke-linecap="round"/>
</svg>
