<svg width="19" height="29" viewBox="0 0 19 29" fill="none" xmlns="http://www.w3.org/2000/svg">
<path d="M16.3003 24.4371L5.82082 5.01168L6.67537 3.24487L7.52991 1.47806L18.0094 20.9035L17.1549 22.6703L16.3003 24.4371Z" fill="#A35CBC"/>
<path d="M0.581123 24.4371C0.581123 24.4371 2.88453 24.9268 4.48262 24.9152M0.581123 24.4371C0.581123 24.4371 0.095639 27.3742 2.14304 27.3742C3.96145 27.3742 4.4076 25.3853 4.48262 24.9152M0.581123 24.4371L3.69556 12.8908L5.82082 5.01168M16.3003 24.4371L5.82082 5.01168M16.3003 24.4371L17.1549 22.6703L18.0094 20.9035L7.52991 1.47806L6.67537 3.24487L5.82082 5.01168M16.3003 24.4371L12.4061 24.9152M16.3003 24.4371C16.3003 24.4371 15.9757 27.5797 13.9283 27.5797C11.8809 27.5797 12.4061 24.9152 12.4061 24.9152M8.51801 17.34L7.72585 13.276M8.36319 24.9301L12.4061 24.9152M8.36319 24.9301C8.36319 24.9301 5.99808 24.921 4.48262 24.9152M8.36319 24.9301C8.29685 25.3976 7.898 27.6932 6.07959 27.6932C4.26118 27.6932 4.42398 25.3853 4.48262 24.9152M8.36319 24.9301C8.31323 25.3976 8.19098 27.6932 10.0094 27.6932C12.0568 27.6932 12.4061 24.9152 12.4061 24.9152M5.6725 13.3433L5.00416 17.4384" stroke="#3B2B18" stroke-linecap="round"/>
</svg>
