<svg width="154" height="197" viewBox="0 0 154 197" fill="none" xmlns="http://www.w3.org/2000/svg">
<g clip-path="url(#clip0)">
<path fill-rule="evenodd" clip-rule="evenodd" d="M151.675 14.6464C104.68 -3.26368 51.2067 -4.36096 1.00006 15.292L78.0635 196.842L151.675 14.6464Z" fill="#F1CA9D"/>
<path fill-rule="evenodd" clip-rule="evenodd" d="M144.136 33.3068C101.919 17.3199 53.9537 16.33 8.86566 33.8223L78.0634 196.842L144.136 33.3068Z" fill="#FFE793"/>
<circle cx="43.6346" cy="53.936" r="12.073" transform="rotate(-23 43.6346 53.936)" fill="#E76666"/>
<circle cx="82.5309" cy="37.4255" r="12.073" transform="rotate(-23 82.5309 37.4255)" fill="#E76666"/>
<circle cx="71.7117" cy="109.782" r="12.073" transform="rotate(-23 71.7117 109.782)" fill="#E76666"/>
<circle cx="98.2551" cy="74.4697" r="12.073" transform="rotate(-23 98.2551 74.4697)" fill="#E76666"/>
<path d="M69.6868 72.3713C70.1183 72.0892 70.6935 72.1813 71.0153 72.5841L72.9909 75.057C73.359 75.5177 73.2504 76.1953 72.7569 76.5181L66.1444 80.842C66.0914 80.8766 66.0418 80.9163 65.9962 80.9603L60.3188 86.4547C59.8951 86.8648 59.2102 86.821 58.8421 86.3603L56.8666 83.8874C56.5448 83.4846 56.582 82.9032 56.9525 82.5446L62.7667 76.9178C62.8123 76.8738 62.8619 76.8341 62.9149 76.7995L69.6868 72.3713Z" fill="#227539"/>
<path d="M18.466 35.1521C18.4147 34.6391 18.7619 34.1712 19.2677 34.0715L22.3731 33.4596C22.9517 33.3456 23.5028 33.7545 23.5614 34.3413L24.3471 42.2028C24.3534 42.2659 24.3657 42.3282 24.3838 42.3889L26.6393 49.9608C26.8077 50.526 26.4529 51.1134 25.8743 51.2274L22.7689 51.8393C22.2631 51.939 21.7644 51.6378 21.6172 51.1437L19.3073 43.3892C19.2892 43.3285 19.2769 43.2662 19.2706 43.2032L18.466 35.1521Z" fill="#227539"/>
<path d="M46.6223 110.485C46.4668 109.994 46.7104 109.465 47.185 109.263L50.0985 108.026C50.6413 107.796 51.2647 108.083 51.4426 108.645L53.8262 116.178C53.8453 116.238 53.8702 116.297 53.9003 116.352L57.663 123.299C57.9438 123.818 57.7172 124.466 57.1744 124.696L54.2609 125.933C53.7864 126.134 53.2364 125.942 52.9909 125.489L49.1375 118.374C49.1073 118.318 49.0825 118.26 49.0634 118.199L46.6223 110.485Z" fill="#227539"/>
<path d="M108.085 112.373C108.385 112.792 108.318 113.37 107.929 113.709L105.543 115.788C105.098 116.176 104.417 116.096 104.073 115.617L99.4711 109.195C99.4342 109.143 99.3925 109.095 99.3465 109.052L93.6151 103.614C93.1873 103.208 93.2018 102.522 93.6465 102.134L96.0328 100.055C96.4215 99.7164 97.004 99.7287 97.378 100.084L103.248 105.653C103.294 105.696 103.335 105.744 103.372 105.796L108.085 112.373Z" fill="#227539"/>
<path d="M109.522 46.3202C109.161 46.6877 108.579 46.7199 108.179 46.3947L105.723 44.3983C105.265 44.0263 105.227 43.3411 105.641 42.9208L111.183 37.2902C111.228 37.2451 111.268 37.1958 111.303 37.1431L115.683 30.5675C116.01 30.0767 116.688 29.9739 117.146 30.3459L119.602 32.3424C120.002 32.6676 120.089 33.2436 119.803 33.6727L115.318 40.4068C115.283 40.4595 115.243 40.5088 115.198 40.5539L109.522 46.3202Z" fill="#227539"/>
<path d="M71.048 152.58C70.8924 152.088 71.1361 151.559 71.6107 151.358L74.5241 150.121C75.067 149.89 75.6903 150.177 75.8683 150.74L78.2519 158.272C78.271 158.333 78.2958 158.391 78.326 158.447L82.0886 165.394C82.3695 165.913 82.1429 166.56 81.6 166.791L78.6866 168.027C78.212 168.229 77.6621 168.036 77.4165 167.583L73.5632 160.468C73.533 160.413 73.5082 160.354 73.4891 160.294L71.048 152.58Z" fill="#227539"/>
<path d="M54.2998 79.0616C56.5275 84.3097 55.649 88.183 50.4573 90.3868C45.2656 92.5905 41.7099 90.5995 39.4822 85.3513C37.2545 80.1032 38.9759 77.7729 44.1676 75.5691C49.3593 73.3654 52.0721 73.8135 54.2998 79.0616Z" fill="#5A3D10"/>
<path d="M59.2295 28.8785C61.4572 34.1266 60.5788 37.9999 55.3871 40.2036C50.1954 42.4074 46.6396 40.4163 44.4119 35.1682C42.1842 29.9201 43.9056 27.5898 49.0974 25.386C54.2891 23.1823 57.0018 23.6304 59.2295 28.8785Z" fill="#5A3D10"/>
<path d="M86.3468 56.7147C88.5745 61.9628 87.6961 65.8361 82.5044 68.0398C77.3127 70.2436 73.7569 68.2525 71.5292 63.0044C69.3015 57.7562 71.023 55.426 76.2147 53.2222C81.4064 51.0185 84.1191 51.4665 86.3468 56.7147Z" fill="#5A3D10"/>
<path d="M77.1 132.775C79.3277 138.023 78.4493 141.897 73.2576 144.1C68.0658 146.304 64.5101 144.313 62.2824 139.065C60.0547 133.817 61.7761 131.487 66.9678 129.283C72.1596 127.079 74.8723 127.527 77.1 132.775Z" fill="#5A3D10"/>
<path d="M127.548 61.0848C129.776 66.3329 128.898 70.2062 123.706 72.4099C118.514 74.6137 114.959 72.6226 112.731 67.3745C110.503 62.1264 112.225 59.7961 117.416 57.5923C122.608 55.3886 125.321 55.8367 127.548 61.0848Z" fill="#5A3D10"/>
<path fill-rule="evenodd" clip-rule="evenodd" d="M40.4324 108.189C42.9384 104.857 43.6488 100.317 41.9027 96.2038C40.1567 92.0904 36.3974 89.4476 32.2601 88.936L40.4324 108.189Z" fill="#E76666"/>
<path fill-rule="evenodd" clip-rule="evenodd" d="M64.0188 163.755C66.5249 160.423 67.2353 155.883 65.4892 151.77C63.7432 147.656 59.9839 145.014 55.8465 144.502L64.0188 163.755Z" fill="#E76666"/>
<path fill-rule="evenodd" clip-rule="evenodd" d="M72.4558 183.631C76.0999 181.342 76.5367 177.796 74.582 173.191C72.6272 168.586 70.299 167.676 66.2502 169.012L72.4558 183.631Z" fill="#5A3D10"/>
<path fill-rule="evenodd" clip-rule="evenodd" d="M142.456 36.4697C140.007 35.8631 137.348 36.0165 134.846 37.0784C128.708 39.6837 125.845 46.7712 128.45 52.9089C129.512 55.4105 131.318 57.3682 133.502 58.6334L142.456 36.4697Z" fill="#E76666"/>
<path fill-rule="evenodd" clip-rule="evenodd" d="M121.192 90.8642C119.479 90.0194 117.334 90.4167 114.392 91.6653C109.2 93.8691 107.479 96.1994 109.707 101.447C110.938 104.349 112.575 106.254 114.67 107.007L121.192 90.8642Z" fill="#5A3D10"/>
<path fill-rule="evenodd" clip-rule="evenodd" d="M103.764 134.001L96.668 151.563C90.8668 153.272 84.5791 150.395 82.1591 144.694C79.5538 138.556 82.4173 131.469 88.555 128.864C94.2563 126.443 100.777 128.742 103.764 134.001Z" fill="#E76666"/>
<path fill-rule="evenodd" clip-rule="evenodd" d="M86.1536 176.313C85.0391 176.444 83.9243 176.734 82.8391 177.194C76.7014 179.8 73.8379 186.887 76.4432 193.025C76.8462 193.974 77.3565 194.846 77.954 195.63L86.1536 176.313Z" fill="#E76666"/>
</g>
<defs>
<clipPath id="clip0">
<rect width="154" height="197" fill="white"/>
</clipPath>
</defs>
</svg>
