<svg width="154" height="197" viewBox="0 0 154 197" fill="none" xmlns="http://www.w3.org/2000/svg">
<g clip-path="url(#clip0)">
<path fill-rule="evenodd" clip-rule="evenodd" d="M2.32479 182.354C49.3198 200.264 102.793 201.361 153 181.708L75.9366 0.158014L2.32479 182.354Z" fill="#F1CA9D"/>
<path fill-rule="evenodd" clip-rule="evenodd" d="M9.86421 163.693C52.0807 179.68 100.046 180.67 145.134 163.178L75.9367 0.158111L9.86421 163.693Z" fill="#FFE793"/>
<circle cx="110.365" cy="143.064" r="12.073" transform="rotate(157 110.365 143.064)" fill="#E76666"/>
<circle cx="71.4691" cy="159.575" r="12.073" transform="rotate(157 71.4691 159.575)" fill="#E76666"/>
<circle cx="82.2883" cy="87.2183" r="12.073" transform="rotate(157 82.2883 87.2183)" fill="#E76666"/>
<circle cx="55.7449" cy="122.53" r="12.073" transform="rotate(157 55.7449 122.53)" fill="#E76666"/>
<path d="M84.3132 124.629C83.8817 124.911 83.3065 124.819 82.9847 124.416L81.0091 121.943C80.641 121.482 80.7496 120.805 81.2431 120.482L87.8556 116.158C87.9086 116.123 87.9582 116.084 88.0038 116.04L93.6812 110.545C94.1049 110.135 94.7898 110.179 95.1579 110.64L97.1334 113.113C97.4552 113.515 97.418 114.097 97.0475 114.455L91.2333 120.082C91.1877 120.126 91.1381 120.166 91.0851 120.201L84.3132 124.629Z" fill="#227539"/>
<path d="M135.534 161.848C135.585 162.361 135.238 162.829 134.732 162.928L131.627 163.54C131.048 163.654 130.497 163.246 130.439 162.659L129.653 154.797C129.647 154.734 129.634 154.672 129.616 154.611L127.361 147.039C127.192 146.474 127.547 145.887 128.126 145.773L131.231 145.161C131.737 145.061 132.236 145.362 132.383 145.856L134.693 153.611C134.711 153.671 134.723 153.734 134.729 153.797L135.534 161.848Z" fill="#227539"/>
<path d="M107.378 86.5147C107.533 87.0062 107.29 87.5355 106.815 87.7369L103.902 88.9736C103.359 89.204 102.735 88.9171 102.557 88.3548L100.174 80.8223C100.155 80.7619 100.13 80.7034 100.1 80.6477L96.337 73.7005C96.0562 73.182 96.2828 72.5342 96.8256 72.3038L99.7391 71.0671C100.214 70.8656 100.764 71.058 101.009 71.5114L104.862 78.626C104.893 78.6817 104.917 78.7402 104.937 78.8006L107.378 86.5147Z" fill="#227539"/>
<path d="M45.9149 84.6275C45.6146 84.2084 45.6821 83.6297 46.0708 83.291L48.4572 81.2118C48.9018 80.8244 49.5834 80.904 49.9269 81.3833L54.5288 87.8054C54.5657 87.8569 54.6075 87.9048 54.6534 87.9484L60.3849 93.3864C60.8127 93.7923 60.7981 94.4784 60.3535 94.8658L57.9671 96.9449C57.5784 97.2836 56.9959 97.2713 56.6219 96.9164L50.7523 91.3473C50.7063 91.3037 50.6646 91.2559 50.6277 91.2044L45.9149 84.6275Z" fill="#227539"/>
<path d="M44.4777 150.68C44.8394 150.312 45.4211 150.28 45.8211 150.605L48.2771 152.602C48.7348 152.974 48.7727 153.659 48.359 154.079L42.8167 159.71C42.7723 159.755 42.7322 159.804 42.6971 159.857L38.3173 166.432C37.9903 166.923 37.3118 167.026 36.8542 166.654L34.3982 164.658C33.9982 164.332 33.9109 163.756 34.1967 163.327L38.6821 156.593C38.7173 156.541 38.7573 156.491 38.8018 156.446L44.4777 150.68Z" fill="#227539"/>
<path d="M82.952 44.4202C83.1076 44.9118 82.8639 45.441 82.3893 45.6424L79.4759 46.8791C78.933 47.1096 78.3097 46.8226 78.1317 46.2603L75.7481 38.7278C75.729 38.6674 75.7042 38.6089 75.674 38.5532L71.9114 31.606C71.6305 31.0875 71.8571 30.4397 72.4 30.2093L75.3134 28.9726C75.788 28.7712 76.3379 28.9635 76.5835 29.4169L80.4368 36.5315C80.467 36.5872 80.4918 36.6457 80.5109 36.7061L82.952 44.4202Z" fill="#227539"/>
<path d="M99.7003 117.938C97.4726 112.69 98.351 108.817 103.543 106.613C108.734 104.409 112.29 106.401 114.518 111.649C116.746 116.897 115.024 119.227 109.832 121.431C104.641 123.635 101.928 123.187 99.7003 117.938Z" fill="#5A3D10"/>
<path d="M94.7705 168.122C92.5428 162.873 93.4212 159 98.6129 156.796C103.805 154.593 107.36 156.584 109.588 161.832C111.816 167.08 110.094 169.41 104.903 171.614C99.7109 173.818 96.9982 173.37 94.7705 168.122Z" fill="#5A3D10"/>
<path d="M67.6532 140.285C65.4255 135.037 66.3039 131.164 71.4956 128.96C76.6873 126.756 80.2431 128.747 82.4708 133.996C84.6985 139.244 82.977 141.574 77.7853 143.778C72.5936 145.982 69.8809 145.533 67.6532 140.285Z" fill="#5A3D10"/>
<path d="M76.9 64.2248C74.6723 58.9766 75.5507 55.1034 80.7424 52.8996C85.9342 50.6959 89.4899 52.6869 91.7176 57.9351C93.9453 63.1832 92.2239 65.5135 87.0322 67.7172C81.8404 69.921 79.1277 69.4729 76.9 64.2248Z" fill="#5A3D10"/>
<path d="M26.4515 135.915C24.2238 130.667 25.1023 126.794 30.294 124.59C35.4857 122.386 39.0414 124.377 41.2691 129.625C43.4968 134.874 41.7754 137.204 36.5837 139.408C31.392 141.611 28.6792 141.163 26.4515 135.915Z" fill="#5A3D10"/>
<path fill-rule="evenodd" clip-rule="evenodd" d="M113.568 88.8112C111.062 92.1427 110.351 96.6827 112.097 100.796C113.843 104.91 117.603 107.552 121.74 108.064L113.568 88.8112Z" fill="#E76666"/>
<path fill-rule="evenodd" clip-rule="evenodd" d="M89.9812 33.2452C87.4751 36.5767 86.7647 41.1168 88.5108 45.2302C90.2568 49.3437 94.0161 51.9865 98.1535 52.498L89.9812 33.2452Z" fill="#E76666"/>
<path fill-rule="evenodd" clip-rule="evenodd" d="M81.5442 13.3687C77.9001 15.6575 77.4633 19.204 79.418 23.8092C81.3728 28.4143 83.701 29.3235 87.7498 27.9883L81.5442 13.3687Z" fill="#5A3D10"/>
<path fill-rule="evenodd" clip-rule="evenodd" d="M11.5437 160.53C13.9931 161.137 16.6525 160.984 19.1541 159.922C25.2918 157.316 28.1553 150.229 25.5501 144.091C24.4882 141.59 22.6817 139.632 20.4984 138.367L11.5437 160.53Z" fill="#E76666"/>
<path fill-rule="evenodd" clip-rule="evenodd" d="M32.8078 106.136C34.5205 106.981 36.6663 106.583 39.608 105.335C44.7997 103.131 46.5211 100.801 44.2934 95.5525C43.062 92.6515 41.4248 90.7457 39.3298 89.9935L32.8078 106.136Z" fill="#5A3D10"/>
<path fill-rule="evenodd" clip-rule="evenodd" d="M50.2362 62.9992L57.332 45.4365C63.1332 43.7285 69.4209 46.6047 71.8409 52.306C74.4462 58.4436 71.5827 65.5312 65.445 68.1365C59.7437 70.5565 53.2228 68.2577 50.2362 62.9992Z" fill="#E76666"/>
<path fill-rule="evenodd" clip-rule="evenodd" d="M67.8464 20.6868C68.9609 20.5559 70.0757 20.2663 71.1609 19.8057C77.2986 17.2004 80.1621 10.1128 77.5568 3.97516C77.1538 3.02564 76.6435 2.15448 76.046 1.3698L67.8464 20.6868Z" fill="#E76666"/>
</g>
<defs>
<clipPath id="clip0">
<rect width="154" height="197" fill="white" transform="translate(154 197) rotate(-180)"/>
</clipPath>
</defs>
</svg>
