<svg viewBox="0 0 129 129" fill="none" xmlns="http://www.w3.org/2000/svg">
<circle cx="4.5" cy="4.5" r="4.5" fill="white"/>
<circle cx="4.5" cy="19.5" r="4.5" fill="white"/>
<circle cx="4.5" cy="49.5" r="4.5" fill="white"/>
<circle cx="4.5" cy="64.5" r="4.5" fill="white"/>
<circle cx="4.5" cy="79.5" r="4.5" fill="white"/>
<circle cx="4.5" cy="94.5" r="4.5" fill="white"/>
<circle cx="4.5" cy="109.5" r="4.5" fill="white"/>
<circle cx="4.5" cy="124.5" r="4.5" fill="white"/>
<circle cx="4.5" cy="34.5" r="4.5" fill="white"/>
<circle cx="19.5" cy="19.5" r="4.5" fill="white"/>
<circle cx="19.5" cy="49.5" r="4.5" fill="white"/>
<circle cx="19.5" cy="64.5" r="4.5" fill="white"/>
<circle cx="19.5" cy="79.5" r="4.5" fill="white"/>
<circle cx="19.5" cy="94.5" r="4.5" fill="white"/>
<circle cx="19.5" cy="109.5" r="4.5" fill="white"/>
<circle cx="19.5" cy="124.5" r="4.5" fill="white"/>
<circle cx="19.5" cy="34.5" r="4.5" fill="white"/>
<circle cx="34.5" cy="49.5" r="4.5" fill="white"/>
<circle cx="34.5" cy="64.5" r="4.5" fill="white"/>
<circle cx="34.5" cy="79.5" r="4.5" fill="white"/>
<circle cx="34.5" cy="94.5" r="4.5" fill="white"/>
<circle cx="34.5" cy="109.5" r="4.5" fill="white"/>
<circle cx="34.5" cy="124.5" r="4.5" fill="white"/>
<circle cx="49.5" cy="49.5" r="4.5" fill="white"/>
<circle cx="49.5" cy="64.5" r="4.5" fill="white"/>
<circle cx="49.5" cy="79.5" r="4.5" fill="white"/>
<circle cx="49.5" cy="94.5" r="4.5" fill="white"/>
<circle cx="49.5" cy="109.5" r="4.5" fill="white"/>
<circle cx="49.5" cy="124.5" r="4.5" fill="white"/>
<circle cx="64.5" cy="64.5" r="4.5" fill="white"/>
<circle cx="64.5" cy="79.5" r="4.5" fill="white"/>
<circle cx="64.5" cy="94.5" r="4.5" fill="white"/>
<circle cx="64.5" cy="109.5" r="4.5" fill="white"/>
<circle cx="64.5" cy="124.5" r="4.5" fill="white"/>
<circle cx="79.5" cy="79.5" r="4.5" fill="white"/>
<circle cx="79.5" cy="94.5" r="4.5" fill="white"/>
<circle cx="79.5" cy="109.5" r="4.5" fill="white"/>
<circle cx="79.5" cy="124.5" r="4.5" fill="white"/>
<circle cx="94.5" cy="94.5" r="4.5" fill="white"/>
<circle cx="94.5" cy="109.5" r="4.5" fill="white"/>
<circle cx="94.5" cy="124.5" r="4.5" fill="white"/>
<circle cx="109.5" cy="109.5" r="4.5" fill="white"/>
<circle cx="109.5" cy="124.5" r="4.5" fill="white"/>
<circle cx="124.5" cy="124.5" r="4.5" fill="white"/>
<circle cx="34.5" cy="34.5" r="4.5" fill="white"/>
</svg>
